<svg width="15" height="15" viewBox="0 0 15 15" fill="none" xmlns="http://www.w3.org/2000/svg">
<path fill-rule="evenodd" clip-rule="evenodd" d="M10.7221 9.43341H10.0411L9.80446 9.19847C10.6407 8.22338 11.1492 6.9593 11.1492 5.57428C11.1492 2.49557 8.65352 0 5.57459 0C2.49571 0 0 2.49557 0 5.57428C0 8.65303 2.49571 11.1486 5.57459 11.1486C6.95969 11.1486 8.22299 10.6409 9.1981 9.80559L9.43483 10.0406V10.7198L13.7213 15L15 13.7213L10.7221 9.43341ZM5.57469 9.43341C3.44261 9.43341 1.71534 7.70625 1.71534 5.57428C1.71534 3.44319 3.44261 1.71516 5.57469 1.71516C7.70589 1.71516 9.43403 3.44319 9.43403 5.57428C9.43403 7.70625 7.70589 9.43341 5.57469 9.43341Z" fill="#D9D9D9" fill-opacity="0.85"/>
</svg>
